<?xml version="1.0" standalone="no"?><svg xmlns="http://www.w3.org/2000/svg" viewBox="0 0 1440 320"><path fill="#FF5757" fill-opacity="1" d="M0,320L34.3,293.3C68.6,267,137,213,206,208C274.3,203,343,245,411,266.7C480,288,549,288,617,277.3C685.7,267,754,245,823,224C891.4,203,960,181,1029,186.7C1097.1,192,1166,224,1234,245.3C1302.9,267,1371,277,1406,282.7L1440,288L1440,0L1405.7,0C1371.4,0,1303,0,1234,0C1165.7,0,1097,0,1029,0C960,0,891,0,823,0C754.3,0,686,0,617,0C548.6,0,480,0,411,0C342.9,0,274,0,206,0C137.1,0,69,0,34,0L0,0Z"></path></svg>